<?xml version="1.0" standalone="no"?>
<!DOCTYPE svg PUBLIC "-//W3C//DTD SVG 20010904//EN"
 "http://www.w3.org/TR/2001/REC-SVG-20010904/DTD/svg10.dtd">
<svg version="1.0" xmlns="http://www.w3.org/2000/svg"
 width="512.000000pt" height="512.000000pt" viewBox="0 0 512.000000 512.000000"
 preserveAspectRatio="xMidYMid meet">
<metadata>
Created by potrace 1.14, written by Peter Selinger 2001-2017
</metadata>
<g transform="translate(0.000000,512.000000) scale(0.100000,-0.100000)"
fill="#000000" stroke="none">
<path d="M3020 5102 c-28 -22 -30 -74 -5 -99 25 -24 74 -21 97 6 24 31 23 63
-5 89 -28 27 -57 28 -87 4z"/>
<path d="M2532 5014 c-21 -14 -22 -22 -22 -150 0 -75 5 -144 10 -155 7 -12 21
-19 40 -19 19 0 33 7 40 19 5 11 10 80 10 154 0 117 -2 136 -18 150 -23 21
-32 21 -60 1z"/>
<path d="M4156 4726 c-28 -56 -98 -116 -138 -116 -28 0 -21 -17 10 -25 50 -12
98 -54 128 -112 l28 -56 14 41 c16 48 85 114 134 129 l33 9 -45 22 c-69 32
-104 69 -124 127 l-13 36 -27 -55z"/>
<path d="M1523 4749 c-32 -12 -38 -49 -15 -90 11 -19 41 -71 67 -117 53 -93
70 -106 106 -89 31 16 35 46 11 88 -68 121 -123 207 -134 211 -7 3 -23 2 -35
-3z"/>
<path d="M3567 4753 c-20 -5 -157 -232 -157 -260 0 -27 20 -43 52 -43 24 0 35
13 98 121 54 91 70 126 66 145 -7 26 -32 42 -59 37z"/>
<path d="M2448 4485 c-2 -2 -32 -6 -68 -9 -134 -14 -315 -66 -449 -129 -76
-36 -202 -110 -246 -144 -16 -13 -34 -27 -40 -31 -57 -42 -142 -122 -202 -192
-206 -234 -324 -494 -369 -810 -13 -86 -6 -323 11 -415 9 -49 19 -103 21 -119
3 -16 21 -74 41 -129 100 -289 272 -524 528 -722 95 -73 142 -126 184 -204 40
-77 59 -139 67 -221 3 -36 7 -77 8 -91 5 -35 33 -88 64 -122 l27 -28 1 -332
c1 -369 3 -382 65 -430 30 -23 75 -41 104 -42 6 0 13 -31 16 -70 8 -104 43
-165 124 -215 38 -24 49 -25 211 -28 154 -2 176 0 218 18 89 40 136 113 145
225 5 61 8 70 26 71 66 3 137 68 152 139 5 22 9 179 8 350 l0 310 25 30 c58
67 63 84 75 215 15 173 90 304 238 417 104 80 109 85 189 165 89 91 148 164
208 263 65 105 147 286 165 365 46 196 58 276 59 410 6 509 -248 982 -684
1270 -106 69 -307 159 -416 185 -70 17 -156 34 -199 40 -47 7 -301 15 -307 10z"/>
<path d="M774 4000 c-29 -12 -37 -39 -20 -65 19 -28 220 -145 250 -145 44 0
63 52 29 82 -17 15 -229 139 -235 137 -2 0 -12 -4 -24 -9z"/>
<path d="M4310 4002 c-22 -7 -202 -112 -222 -130 -21 -17 -23 -53 -6 -70 18
-18 62 -15 89 6 13 10 31 21 39 25 8 3 38 20 65 37 28 17 57 33 66 36 9 3 22
16 29 29 21 39 -16 81 -60 67z"/>
<path d="M490 2973 c-23 -16 -26 -42 -6 -68 12 -17 28 -19 156 -18 127 0 145
2 157 18 19 27 16 53 -9 69 -32 19 -270 19 -298 -1z"/>
<path d="M4330 2973 c-23 -16 -26 -41 -6 -68 12 -17 28 -19 156 -18 127 0 145
2 157 18 18 25 16 50 -4 66 -23 20 -275 21 -303 2z"/>
<path d="M874 2021 c-63 -36 -120 -73 -124 -82 -14 -25 0 -59 28 -66 27 -6 65
11 200 92 51 31 68 46 70 66 3 26 -17 51 -44 55 -7 1 -66 -28 -130 -65z"/>
<path d="M4090 2073 c-38 -27 -23 -62 45 -103 133 -81 181 -103 207 -97 28 7
39 32 28 62 -7 18 -217 147 -247 151 -6 1 -21 -5 -33 -13z"/>
<path d="M4041 1492 c-16 -39 -77 -92 -106 -92 -13 0 -5 -8 25 -23 31 -16 53
-37 69 -66 l24 -43 12 29 c16 38 52 72 88 85 l29 11 -40 17 c-40 18 -77 60
-84 95 -3 17 -6 14 -17 -13z"/>
<path d="M1618 1398 c-14 -18 -49 -75 -77 -126 -54 -95 -61 -132 -25 -146 40
-15 61 5 128 123 80 142 83 161 25 176 -22 6 -31 1 -51 -27z"/>
<path d="M3432 1414 c-12 -8 -22 -23 -22 -32 0 -9 30 -69 67 -134 67 -117 88
-137 127 -122 34 13 30 51 -14 126 -23 40 -51 89 -62 108 -41 72 -58 81 -96
54z"/>
<path d="M1224 700 c-29 -11 -36 -25 -36 -66 0 -33 -8 -40 -45 -35 -24 3 -51
-19 -62 -50 -9 -27 -8 -33 14 -55 16 -16 35 -24 59 -24 33 0 34 -1 34 -37 0
-26 6 -42 22 -55 47 -38 99 -10 103 56 2 33 4 36 33 36 42 0 77 29 77 64 0 37
-22 56 -72 63 -39 5 -41 7 -37 34 3 20 -3 36 -19 54 -25 27 -37 29 -71 15z"/>
<path d="M1714 130 c-29 -11 -48 -67 -32 -89 35 -47 75 -54 108 -19 25 27 26
59 3 86 -22 25 -51 33 -79 22z"/>
</g>
</svg>
