<?xml version="1.0" standalone="no"?>
<!DOCTYPE svg PUBLIC "-//W3C//DTD SVG 20010904//EN"
 "http://www.w3.org/TR/2001/REC-SVG-20010904/DTD/svg10.dtd">
<svg version="1.0" xmlns="http://www.w3.org/2000/svg"
 width="512.000000pt" height="512.000000pt" viewBox="0 0 512.000000 512.000000"
 preserveAspectRatio="xMidYMid meet">
<metadata>
Created by potrace 1.14, written by Peter Selinger 2001-2017
</metadata>
<g transform="translate(0.000000,512.000000) scale(0.100000,-0.100000)"
fill="#000000" stroke="none">
<path d="M2379 5116 c-2 -2 -38 -6 -79 -10 -64 -6 -207 -29 -315 -51 -225 -46
-548 -179 -775 -320 -154 -96 -184 -135 -158 -204 7 -19 4 -27 -13 -39 -12 -9
-54 -43 -94 -78 -67 -59 -72 -61 -95 -48 -33 18 -55 17 -95 -1 -52 -25 -68
-76 -40 -128 15 -29 14 -30 -64 -127 -58 -72 -82 -95 -92 -89 -46 29 -104 -2
-156 -83 -214 -333 -349 -721 -391 -1118 -14 -140 -7 -501 13 -615 2 -16 7
-43 9 -60 3 -25 41 -205 50 -240 64 -246 180 -508 327 -735 l67 -104 -23 -41
c-38 -66 -54 -137 -51 -223 6 -145 69 -254 193 -336 120 -80 302 -84 429 -11
l41 24 44 -30 c120 -82 427 -249 456 -249 3 0 19 -7 36 -15 64 -29 265 -93
360 -115 120 -27 111 -25 172 -34 28 -4 61 -10 75 -12 113 -19 473 -26 600
-12 96 11 153 19 175 23 190 36 303 66 445 117 649 236 1192 739 1464 1358 61
138 62 141 92 230 35 106 28 83 64 230 28 118 35 154 45 232 26 197 28 536 4
683 -4 28 -10 68 -13 90 -3 22 -7 47 -9 55 -2 8 -7 33 -11 55 -56 290 -203
640 -385 909 l-40 59 24 41 c38 66 54 138 51 223 -6 143 -71 257 -191 336 -64
42 -124 59 -214 62 -89 3 -160 -14 -225 -54 l-32 -20 -65 42 c-343 226 -709
366 -1075 412 -27 4 -60 9 -74 11 -29 6 -456 15 -461 10z"/>
</g>
</svg>
